<?xml version="1.0" encoding="utf-8"?>
<!-- Generator: Adobe Illustrator 16.0.0, SVG Export Plug-In . SVG Version: 6.00 Build 0)  -->
<!DOCTYPE svg PUBLIC "-//W3C//DTD SVG 1.1//EN" "http://www.w3.org/Graphics/SVG/1.1/DTD/svg11.dtd">
<svg version="1.1" id="层_1" xmlns="http://www.w3.org/2000/svg" xmlns:xlink="http://www.w3.org/1999/xlink" x="0px" y="0px"
	 width="15.875px" height="19.25px" viewBox="0 0 15.875 19.25" enable-background="new 0 0 15.875 19.25" xml:space="preserve">
<g>
	<path fill="#999999" d="M0.75,6.12c0,0.3,0.02,0.6,0.07,0.88H0.75l0.14,0.38c0.1,0.48,0.27,1.44,0.49,1.87l4.75,9.25l4.46-8.27
		c0.29-0.451,0.77-1.94,0.92-2.47l0.24-0.51h-0.109c0.069-0.37,0.109-0.74,0.109-1.13c0-3.1-2.46-5.62-5.5-5.62S0.75,3.02,0.75,6.12
		z M3.44,6.25c0-1.52,1.2-2.75,2.69-2.75c1.48,0,2.69,1.23,2.69,2.75S7.61,9,6.13,9C4.64,9,3.44,7.77,3.44,6.25z"/>
</g>
</svg>
